<?xml version="1.0" standalone="no"?>
<!DOCTYPE svg PUBLIC "-//W3C//DTD SVG 20010904//EN"
 "http://www.w3.org/TR/2001/REC-SVG-20010904/DTD/svg10.dtd">
<svg version="1.0" xmlns="http://www.w3.org/2000/svg"
 width="852.000000pt" height="852.000000pt" viewBox="0 0 852.000000 852.000000"
 preserveAspectRatio="xMidYMid meet">
<metadata>
Created by potrace 1.14, written by Peter Selinger 2001-2017
</metadata>
<g transform="translate(0.000000,852.000000) scale(0.100000,-0.100000)"
fill="#000000" stroke="none">
<path d="M4019 8516 c-2 -2 -44 -7 -94 -10 -91 -6 -121 -9 -255 -27 -760 -102
-1508 -430 -2115 -928 -129 -106 -152 -127 -320 -297 -169 -171 -189 -193
-245 -264 -19 -25 -40 -49 -46 -55 -35 -30 -304 -415 -304 -435 0 -5 -4 -10
-8 -10 -4 0 -18 -19 -30 -42 -12 -24 -38 -70 -57 -103 -58 -103 -215 -423
-215 -440 0 -3 -8 -25 -19 -48 -30 -69 -120 -322 -123 -347 0 -3 -5 -16 -10
-30 -5 -14 -23 -77 -39 -140 -33 -128 -35 -134 -49 -205 -5 -27 -12 -61 -15
-75 -4 -22 -10 -55 -30 -180 -13 -84 -17 -122 -32 -290 -10 -112 -10 -552 0
-660 5 -47 8 -92 9 -100 0 -13 8 -81 24 -200 2 -19 6 -46 9 -60 3 -14 7 -38
10 -55 26 -157 93 -416 155 -605 174 -528 480 -1058 855 -1479 72 -82 297
-304 380 -376 133 -115 131 -113 255 -206 422 -316 902 -551 1413 -693 67 -19
133 -36 147 -39 14 -2 66 -14 115 -25 50 -11 112 -23 139 -27 27 -3 52 -8 55
-9 5 -3 59 -11 151 -22 19 -2 51 -6 70 -9 192 -27 686 -27 925 0 134 15 457
72 539 96 21 6 46 12 55 14 112 23 404 120 576 192 696 292 1275 738 1746
1343 66 84 269 382 269 393 0 3 19 36 42 73 38 63 153 287 191 374 155 350
247 652 312 1015 12 72 23 137 23 145 1 14 6 51 17 128 13 85 20 248 19 467 0
246 -9 415 -29 540 -2 17 -7 48 -11 70 -83 565 -289 1138 -572 1593 -29 46
-52 87 -52 92 0 5 -3 10 -7 12 -5 2 -30 37 -58 78 -67 102 -191 264 -293 385
-98 114 -326 345 -421 426 -36 30 -72 61 -81 69 -8 8 -31 26 -49 40 -18 14
-38 30 -44 36 -58 52 -298 218 -457 314 -324 196 -827 403 -1155 474 -16 4
-48 11 -70 17 -148 35 -360 71 -505 85 -36 3 -76 8 -90 11 -29 5 -596 14 -601
9z"/>
</g>
</svg>
